<svg width="200" height="200" viewBox="0 0 200 200" fill="none" xmlns="http://www.w3.org/2000/svg">
<path d="M48.017 189.919H152.724C163.229 189.907 171.737 181.387 171.737 170.881V78.1807C171.737 67.6637 163.212 59.1406 152.7 59.1406H48.043C37.525 59.1406 29 67.6637 29 78.1807V170.881C29 181.387 37.516 189.908 48.017 189.919Z" fill="url(#paint0_linear_2866_670)"/>
<path d="M48.017 189.919H152.724C163.229 189.907 171.737 181.387 171.737 170.881V154.492C151.963 150.71 127.217 148.463 100.372 148.463C73.527 148.463 48.78 150.71 29.001 154.492V170.881C29 181.387 37.516 189.908 48.017 189.919Z" fill="url(#paint1_linear_2866_670)"/>
<path d="M46.64 120.674C46.64 119.297 47.756 118.184 49.129 118.184H58.947V126.788H64.954V118.184H74.773C76.147 118.184 77.261 119.297 77.261 120.674V146.312C77.261 147.689 76.147 148.804 74.773 148.804H49.129C47.756 148.804 46.64 147.689 46.64 146.312V120.674Z" fill="#19E3F9"/>
<path d="M84.78 120.674C84.78 119.297 85.901 118.184 87.274 118.184H97.09V126.788H103.098V118.184H112.912C114.289 118.184 115.406 119.297 115.406 120.674V146.312C115.406 147.689 114.289 148.804 112.912 148.804H87.273C85.9 148.804 84.779 147.689 84.779 146.312L84.78 120.674Z" fill="#19E3F9"/>
<path d="M84.78 83.1855C84.78 81.8075 85.901 80.6919 87.274 80.6919H97.09V89.2988H103.098V80.6919H112.912C114.289 80.6919 115.406 81.8075 115.406 83.1855V108.823C115.406 110.198 114.289 111.315 112.912 111.315H87.273C85.9 111.315 84.779 110.198 84.779 108.823L84.78 83.1855Z" fill="#19E3F9"/>
<path d="M123.476 120.674C123.476 119.297 124.594 118.184 125.971 118.184H135.783V126.788H141.796V118.184H151.611C152.986 118.184 154.103 119.297 154.103 120.674V146.312C154.103 147.689 152.986 148.804 151.611 148.804H125.97C124.593 148.804 123.475 147.689 123.475 146.312L123.476 120.674Z" fill="#19E3F9"/>
<path d="M123.476 83.1855C123.476 81.8075 124.594 80.6919 125.971 80.6919H135.783V89.2988H141.796V80.6919H151.611C152.986 80.6919 154.103 81.8075 154.103 83.1855V108.823C154.103 110.198 152.986 111.315 151.611 111.315H125.97C124.593 111.315 123.475 110.198 123.475 108.823L123.476 83.1855Z" fill="#19E3F9"/>
<path d="M123.476 46.3657C123.476 44.9907 124.594 43.8735 125.971 43.8735H135.783V52.4795H141.796V43.8735H151.611C152.986 43.8735 154.103 44.9907 154.103 46.3657V72.0049C154.103 73.3819 152.986 74.4956 151.611 74.4956H125.97C124.593 74.4956 123.475 73.3829 123.475 72.0049L123.476 46.3657Z" fill="#19E3F9"/>
<path d="M96.014 166.684C95.032 169.38 96.42 172.364 99.118 173.344C101.812 174.324 104.793 172.934 105.775 170.239C106.757 167.543 105.366 164.563 102.671 163.581C99.974 162.6 96.993 163.989 96.014 166.686V166.684ZM105.655 155.091C107.245 155.672 108.637 155.959 107.833 158.174C107.724 158.472 107.713 158.869 107.604 159.17C107.389 159.763 108.45 160.822 108.778 160.941C109.536 161.217 111.166 159.926 112.174 160.295C113.217 160.671 114.511 164.607 114.369 164.996C113.996 166.02 111.961 166.44 111.687 167.183C110.66 170.008 114.437 169.126 114.898 171.295L113.414 175.38C111.353 176.218 109.34 173.636 108.31 176.458C108.036 177.215 109.329 178.849 108.963 179.858C108.578 180.899 104.66 182.196 104.259 182.049C103.248 181.682 102.829 179.645 102.069 179.369C100.971 178.969 100.319 179.557 100.066 180.254C99.956 180.551 99.349 181.477 99.243 181.775C98.766 183.081 96.229 181.958 95.921 181.844C95.118 181.551 93.091 180.914 93.578 179.578C93.686 179.281 93.862 178.062 93.97 177.766C94.197 177.143 93.156 176.122 92.74 175.97C92.099 175.737 90.41 177.009 89.4 176.642C88.373 176.265 87.059 172.34 87.203 171.939C87.572 170.926 89.613 170.508 89.887 169.75C90.287 168.648 89.699 168 89.062 167.768C86.459 166.819 86.601 165.829 87.415 163.598C87.704 162.795 88.3 160.757 89.68 161.258C90.706 161.632 92.659 162.142 93.262 160.478C93.534 159.735 92.242 158.101 92.615 157.076C92.99 156.052 96.931 154.745 97.32 154.882C98.343 155.258 98.761 157.297 99.506 157.564C100.61 157.966 101.254 157.393 101.512 156.679C101.621 156.384 102.227 155.458 102.334 155.158C102.817 153.826 105.344 154.981 105.655 155.091Z" fill="#FFC339"/>
<path d="M36.202 85.5996L41.628 88.5356L60.574 58.6978C62.717 55.3218 66.865 51.18 75.529 53.481C85.566 56.242 93.031 58.8686 93.031 58.8686L112.894 27.5215L107.937 24.8408C106.291 23.9528 106.339 22.3438 108.032 21.5508C116.075 17.7908 123.189 13.6316 127.621 11.6406C130.349 10.2906 131.689 11.2238 131.916 13.0478L134.734 36.0259C134.959 37.8559 133.65 38.7486 132.025 37.8716L125.884 34.5518L105.023 68.1118C102.948 71.4238 98.6 75.3749 90.242 73.6919C79.758 70.6919 71.908 68.2559 71.908 68.2559L54.631 95.5698L60.293 98.6348C61.938 99.5228 61.892 101.134 60.203 101.926C47.263 107.977 36.904 115.244 36.316 110.431L33.499 87.4517C33.275 85.6177 34.58 84.7236 36.202 85.5996Z" fill="url(#paint2_linear_2866_670)"/>
<path d="M46.64 161.996H81.452V174.926H46.64V161.996ZM119.294 161.996H154.104V174.926H119.294V161.996Z" fill="#19E3F9"/>
<path d="M60.289 59.1406H110.595L105.024 68.1089C102.95 71.4209 98.604 75.3715 90.243 73.6885C79.759 70.6885 71.909 68.2529 71.909 68.2529L54.632 95.5669L60.298 98.6318C61.939 99.5198 61.896 101.131 60.204 101.923C47.264 107.974 36.908 115.241 36.319 110.428L33.5 87.4487C33.275 85.6187 34.585 84.7256 36.204 85.6006L41.629 88.5366L60.289 59.1406Z" fill="url(#paint3_linear_2866_670)"/>
<defs>
<linearGradient id="paint0_linear_2866_670" x1="172.699" y1="123.447" x2="28.0426" y2="125.608" gradientUnits="userSpaceOnUse">
<stop stop-color="#8C63CF"/>
<stop offset="1" stop-color="#4634EA"/>
</linearGradient>
<linearGradient id="paint1_linear_2866_670" x1="30.1651" y1="145.116" x2="170.411" y2="193.749" gradientUnits="userSpaceOnUse">
<stop stop-color="#1933BE"/>
<stop offset="1" stop-color="#2A9CE2"/>
</linearGradient>
<linearGradient id="paint2_linear_2866_670" x1="136.399" y1="45.3846" x2="31.1207" y2="77.8524" gradientUnits="userSpaceOnUse">
<stop stop-color="#FFC338"/>
<stop offset="0.9608" stop-color="#FF6B93"/>
<stop offset="1" stop-color="#FF6B93"/>
</linearGradient>
<linearGradient id="paint3_linear_2866_670" x1="110.95" y1="84.7065" x2="32.8665" y2="85.7916" gradientUnits="userSpaceOnUse">
<stop stop-color="#8C63CF"/>
<stop offset="1" stop-color="#FFAB51"/>
</linearGradient>
</defs>
</svg>
